<svg width="48" height="48" viewBox="0 0 48 48" fill="none" xmlns="http://www.w3.org/2000/svg">
<g clip-path="url(#clip0)">
<path d="M12.1268 8.83226V23.2256C12.1268 25.4591 12.2371 27.0032 12.4577 27.858C12.6921 28.7128 13.2642 29.4435 14.1742 30.0501C15.0841 30.6429 16.256 30.9393 17.6898 30.9393C19.3994 30.9393 20.7091 30.6843 21.619 30.1742C22.529 29.6503 23.1287 28.954 23.4182 28.0855C23.7215 27.2031 23.8732 25.6521 23.8732 23.4324V8.83226H20.5437V5.23392H31.7937V8.83226H28.1953V23.8667C28.1953 25.8934 28.1057 27.3686 27.9265 28.2923C27.761 29.2022 27.2992 30.1604 26.5409 31.1668C25.7826 32.1595 24.7142 32.9591 23.3355 33.5657C21.9568 34.1585 20.2817 34.455 18.3102 34.455C16.1319 34.455 14.3189 34.1792 12.8713 33.6278C11.4237 33.0625 10.3346 32.3111 9.60386 31.3736C8.87316 30.4361 8.38373 29.4366 8.13557 28.375C7.90119 27.3134 7.78401 25.6659 7.78401 23.4324V8.83226H4.22702V5.23392H15.5391V8.83226H12.1268Z" fill="#4F4F4F"/>
<path d="M40.4788 32.7071L44.0901 34.7223C43.2787 37.8082 41.636 40.2024 39.162 41.905C36.7012 43.5943 33.868 44.4389 30.6624 44.4389C26.4591 44.4389 23.0872 43.0756 20.5467 40.3488C18.0061 37.622 16.7358 34.2501 16.7358 30.233C16.7358 25.8303 18.0127 22.3254 20.5666 19.7183C23.1205 17.1112 26.4525 15.8077 30.5626 15.8077C34.1939 15.8077 37.2466 16.7986 39.7206 18.7805V16.2466H43.312V25.1652H39.7206C38.9225 23.3562 37.6922 21.9596 36.0295 20.9753C34.3668 19.9777 32.6177 19.4789 30.7821 19.4789C28.0154 19.4789 25.7409 20.4765 23.9585 22.4717C22.1894 24.4669 21.3048 26.9875 21.3048 30.0335C21.3048 33.1594 22.2559 35.7132 24.158 37.6951C26.0601 39.677 28.3147 40.668 30.9217 40.668C33.0633 40.668 35.0119 39.983 36.7677 38.6129C38.5235 37.2296 39.7605 35.261 40.4788 32.7071Z" fill="#F2F2F2"/>
<line x1="31.7749" y1="7.04057" x2="43.3105" y2="7.04057" stroke="url(#paint0_linear)" stroke-width="3.58"/>
<line x1="41.5205" y1="16.262" x2="41.5205" y2="8.83057" stroke="url(#paint1_linear)" stroke-width="3.58"/>
</g>
<defs>
<linearGradient id="paint0_linear" x1="31.7749" y1="7.36943" x2="40.0651" y2="9.11343" gradientUnits="userSpaceOnUse">
<stop stop-color="#4F4F4F"/>
<stop offset="1" stop-color="#7E7E7E"/>
</linearGradient>
<linearGradient id="paint1_linear" x1="41.7312" y1="8.83059" x2="41.6843" y2="16.262" gradientUnits="userSpaceOnUse">
<stop stop-color="#7E7E7E"/>
<stop offset="1" stop-color="#F2F2F2"/>
</linearGradient>
<clipPath id="clip0">
<path d="M0 0H48V48H0V0Z" fill="white"/>
</clipPath>
</defs>
</svg>
